<?xml version="1.0" encoding="UTF-8" standalone="no"?>
<svg
   xmlns:dc="http://purl.org/dc/elements/1.1/"
   xmlns:cc="http://creativecommons.org/ns#"
   xmlns:rdf="http://www.w3.org/1999/02/22-rdf-syntax-ns#"
   xmlns:svg="http://www.w3.org/2000/svg"
   xmlns="http://www.w3.org/2000/svg"
   xmlns:sodipodi="http://sodipodi.sourceforge.net/DTD/sodipodi-0.dtd"
   xmlns:inkscape="http://www.inkscape.org/namespaces/inkscape"
   width="24"
   height="24"
   viewBox="0 0 24 24"
   version="1.1"
   id="svg4"
   sodipodi:docname="change_exec_w.svg"
   inkscape:version="0.92.3 (2405546, 2018-03-11)">
  <metadata
     id="metadata10">
    <rdf:RDF>
      <cc:Work
         rdf:about="">
        <dc:format>image/svg+xml</dc:format>
        <dc:type
           rdf:resource="http://purl.org/dc/dcmitype/StillImage" />
        <dc:title></dc:title>
      </cc:Work>
    </rdf:RDF>
  </metadata>
  <defs
     id="defs8" />
  <sodipodi:namedview
     pagecolor="#ffffff"
     bordercolor="#666666"
     borderopacity="1"
     objecttolerance="10"
     gridtolerance="10"
     guidetolerance="10"
     inkscape:pageopacity="0"
     inkscape:pageshadow="2"
     inkscape:window-width="640"
     inkscape:window-height="480"
     id="namedview6"
     showgrid="false"
     inkscape:zoom="9.8333333"
     inkscape:cx="10.220339"
     inkscape:cy="12"
     inkscape:window-x="0"
     inkscape:window-y="0"
     inkscape:window-maximized="0"
     inkscape:current-layer="svg4" />
  <path
     d="M15.408 23h-15.408v-22h22v9.683c-.622-.296-1.293-.502-2-.603v-3.08h-18v14h11.26c.566.81 1.3 1.49 2.148 2zm2.257-8.669c.402-.206.852-.331 1.335-.331 1.455 0 2.67 1.042 2.941 2.418l1.96-.398c-.456-2.291-2.475-4.02-4.901-4.02-.957 0-1.845.278-2.604.745l-1.396-1.745-1 5h5l-1.335-1.669zm5.335 8.669l-1.396-1.745c-.759.467-1.647.745-2.604.745-2.426 0-4.445-1.729-4.901-4.02l1.96-.398c.271 1.376 1.486 2.418 2.941 2.418.483 0 .933-.125 1.335-.331l-1.335-1.669h5l-1 5z"
     id="path2"
     style="fill:#ffffff" />
</svg>
