<?xml version="1.0" encoding="UTF-8" standalone="no"?>
<svg
   xmlns:dc="http://purl.org/dc/elements/1.1/"
   xmlns:cc="http://creativecommons.org/ns#"
   xmlns:rdf="http://www.w3.org/1999/02/22-rdf-syntax-ns#"
   xmlns:svg="http://www.w3.org/2000/svg"
   xmlns="http://www.w3.org/2000/svg"
   xmlns:sodipodi="http://sodipodi.sourceforge.net/DTD/sodipodi-0.dtd"
   xmlns:inkscape="http://www.inkscape.org/namespaces/inkscape"
   width="24"
   height="24"
   viewBox="0 0 24 24"
   version="1.1"
   id="svg4"
   sodipodi:docname="open_w.svg"
   inkscape:version="0.92.3 (2405546, 2018-03-11)">
  <metadata
     id="metadata10">
    <rdf:RDF>
      <cc:Work
         rdf:about="">
        <dc:format>image/svg+xml</dc:format>
        <dc:type
           rdf:resource="http://purl.org/dc/dcmitype/StillImage" />
        <dc:title></dc:title>
      </cc:Work>
    </rdf:RDF>
  </metadata>
  <defs
     id="defs8" />
  <sodipodi:namedview
     pagecolor="#ffffff"
     bordercolor="#666666"
     borderopacity="1"
     objecttolerance="10"
     gridtolerance="10"
     guidetolerance="10"
     inkscape:pageopacity="0"
     inkscape:pageshadow="2"
     inkscape:window-width="640"
     inkscape:window-height="480"
     id="namedview6"
     showgrid="false"
     inkscape:zoom="9.8333333"
     inkscape:cx="10.220339"
     inkscape:cy="12"
     inkscape:window-x="0"
     inkscape:window-y="0"
     inkscape:window-maximized="0"
     inkscape:current-layer="svg4" />
  <path
     d="M14.039 8.968l-3.961-3.968h1.968s.991-3.178-2.985-5c6.191.222 6.972 5 6.972 5h1.967l-3.961 3.968zm6.461 5.575l-.342.195v1.717l.342-.195v-1.717zm-.844.481l-.35.199v1.717l.35-.199v-1.717zm.906-10.024l-1.306 1.55 1.62.919-6.859 3.698-8.86-5.138 4.436-2.685c-.234-.5-.626-.989-1.313-1.338l-5.124 2.978-3.156 5.487 2 1.106v5.445l12.25 6.978 9.75-5.551v-11.508l-3.438-1.941zm-16.624 2.688l7.897 4.54-1.192 2.091-7.872-4.605 1.167-2.026zm9.062 13.298l-9-5.126v-3.112l7.377 4.319 1.623-2.845v6.764zm9-3.7l-7 3.985v-8.361l7-3.773v8.149zm-4.907-.802l-.349.199v1.713l.349-.195v-1.717zm.584-.333l-.343.195v1.717l.343-.195v-1.717zm1.395-.794l-.343.195v1.717l.343-.195v-1.717zm-.574.327l-.344.196v1.717l.344-.196v-1.717z"
     id="path2"
     style="fill:#ffffff" />
</svg>
